<?xml version="1.0" encoding="UTF-8" standalone="yes"?>
<svg version="1.2" viewBox="0 0 1000 1000" xml:space="preserve" baseProfile="tiny-ps" xmlns="http://www.w3.org/2000/svg">
  <title>bimi-svg-tiny-12-ps</title>
  <g>
    <path d="M161.54,377.7c25.71-4.39,47.5,1.81,65.36,18.62c15.97,27.15,10.42,53.66-16.64,79.52c17.59,13.71,24.36,33.75,20.3,60.12&#xA;&#x9;&#x9;c-2.17,23.27-14.35,44.22-36.54,62.84c-31.4,20.69-66.17,28.45-104.33,23.27l-7.71-2.72c-3.25-1.03-6.63-3.23-10.15-6.59&#xA;&#x9;&#x9;c-3.52-3.36-6.09-7.5-7.71-12.41c4.6-38.79,29.49-44.09,74.69-15.9c6.22,0,12.18-1.29,17.86-3.88&#xA;&#x9;&#x9;c14.07-10.34,20.02-24.18,17.86-41.5c-6.5-19.65-23.68-27.79-51.56-24.44l-4.47-2.33c-4.33-5.69-4.87-13.19-1.62-22.5&#xA;&#x9;&#x9;c1.08-1.03,2.23-2.07,3.45-3.1c1.22-1.03,2.5-2.07,3.86-3.1c36.54-8.01,54.12-24.69,52.77-50.04&#xA;&#x9;&#x9;c-18.41-17.32-38.03-10.99-58.86,19.01c-1.36,1.04-2.78,1.94-4.26,2.72c-1.49,0.78-3.32,1.68-5.48,2.72&#xA;&#x9;&#x9;c-12.45,1.04-19.49-4.01-21.11-15.13C98.07,409.51,122.83,387.78,161.54,377.7z"/>
    <path d="M325.94,377.7c25.71-4.39,47.5,1.81,65.36,18.62c15.97,27.15,10.42,53.66-16.64,79.52c17.59,13.71,24.36,33.75,20.3,60.12&#xA;&#x9;&#x9;c-2.17,23.27-14.35,44.22-36.54,62.84c-31.4,20.69-66.17,28.45-104.33,23.27l-7.71-2.72c-3.25-1.03-6.63-3.23-10.15-6.59&#xA;&#x9;&#x9;c-3.52-3.36-6.09-7.5-7.71-12.41c4.6-38.79,29.49-44.09,74.69-15.9c6.22,0,12.18-1.29,17.86-3.88&#xA;&#x9;&#x9;c14.07-10.34,20.02-24.18,17.86-41.5c-6.5-19.65-23.68-27.79-51.56-24.44l-4.47-2.33c-4.33-5.69-4.87-13.19-1.62-22.5&#xA;&#x9;&#x9;c1.08-1.03,2.23-2.07,3.45-3.1c1.22-1.03,2.5-2.07,3.86-3.1c36.54-8.01,54.12-24.69,52.77-50.04&#xA;&#x9;&#x9;c-18.41-17.32-38.03-10.99-58.86,19.01c-1.36,1.04-2.78,1.94-4.26,2.72c-1.49,0.78-3.32,1.68-5.48,2.72&#xA;&#x9;&#x9;c-12.45,1.04-19.49-4.01-21.11-15.13C262.48,409.51,287.24,387.78,325.94,377.7z"/>
    <path d="M461.53,451.01l3.65-1.55c10.01-1.81,17.46,1.42,22.33,9.7c29.49-16.55,54.8-14.22,75.91,6.98&#xA;&#x9;&#x9;c14.88-11.64,32.34-17.19,52.37-16.68c22.19,0,36.4,10.86,42.62,32.58l2.03,14.74v4.65l-11.77,85.72&#xA;&#x9;&#x9;c18.13,1.55,23.55,11.12,16.24,28.7c-1.9,1.81-4.74,3.62-8.52,5.43h-70.64c-2.17,0.26-4.47,0.33-6.9,0.19&#xA;&#x9;&#x9;c-2.44-0.13-5.14-0.45-8.12-0.97l-4.47,0.78h-82l-3.65-1.55c-2.17,0.52-4.61,0.97-7.31,1.36c-2.71,0.39-5.55,0.45-8.52,0.19h-62.92&#xA;&#x9;&#x9;c-5.68,0.26-10.55-1.29-14.61-4.65c-0.55-2.84-0.61-5.88-0.2-9.12c0.41-3.23,0.88-6.65,1.42-10.28c5.95-6.21,13.66-9.31,23.14-9.31&#xA;&#x9;&#x9;c0.81-3.88,1.62-7.89,2.44-12.02l11.77-79.91c-17.6,1.04-23.55-7.24-17.86-24.83c1.62-2.07,4.47-4.52,8.52-7.37&#xA;&#x9;&#x9;c8.39-1.55,19.08-4.65,32.07-9.31L461.53,451.01z M512.27,495.23c-2.44-1.55-5.28-2.33-8.52-2.33c-6.77,1.3-13.94,4.65-21.52,10.09&#xA;&#x9;&#x9;l-12.18,84.95c9.47,2.59,19.89,2.33,31.26-0.78l11.77-79.52c0.27-1.81,0.34-3.75,0.2-5.82&#xA;&#x9;&#x9;C513.15,499.76,512.81,497.56,512.27,495.23z M601.58,495.23c-2.17-1.55-5.42-2.33-9.74-2.33c-7.04,1.55-13.94,5.18-20.7,10.86&#xA;&#x9;&#x9;l-11.37,76.8l0.41,3.88l0.41,3.49c8.39,2.59,18.13,2.33,29.23-0.78c0.54-1.81,1.01-3.68,1.42-5.62c0.41-1.94,0.74-4.07,1.01-6.4&#xA;&#x9;&#x9;l10.15-69.05L601.58,495.23z"/>
    <path d="M729.86,451.01l3.65-1.55c10.01-1.81,17.46,1.42,22.33,9.7c29.49-16.55,54.8-14.22,75.91,6.98&#xA;&#x9;&#x9;c14.88-11.64,32.34-17.19,52.37-16.68c22.19,0,36.4,10.86,42.62,32.58l2.03,14.74v4.65L917,587.16&#xA;&#x9;&#x9;c18.13,1.55,23.55,11.12,16.24,28.7c-1.9,1.81-4.74,3.62-8.52,5.43h-70.64c-2.17,0.26-4.47,0.33-6.9,0.19&#xA;&#x9;&#x9;c-2.44-0.13-5.14-0.45-8.12-0.97l-4.47,0.78h-82l-3.65-1.55c-2.17,0.52-4.6,0.97-7.31,1.36c-2.71,0.39-5.55,0.45-8.52,0.19h-62.92&#xA;&#x9;&#x9;c-5.68,0.26-10.55-1.29-14.61-4.65c-0.55-2.84-0.61-5.88-0.2-9.12c0.41-3.23,0.88-6.65,1.42-10.28c5.95-6.21,13.66-9.31,23.14-9.31&#xA;&#x9;&#x9;c0.81-3.88,1.62-7.89,2.44-12.02l11.77-79.91c-17.6,1.04-23.55-7.24-17.86-24.83c1.62-2.07,4.47-4.52,8.52-7.37&#xA;&#x9;&#x9;c8.39-1.55,19.08-4.65,32.07-9.31L729.86,451.01z M780.6,495.23c-2.44-1.55-5.28-2.33-8.52-2.33c-6.77,1.3-13.94,4.65-21.52,10.09&#xA;&#x9;&#x9;l-12.18,84.95c9.47,2.59,19.89,2.33,31.26-0.78l11.77-79.52c0.27-1.81,0.34-3.75,0.2-5.82&#xA;&#x9;&#x9;C781.48,499.76,781.14,497.56,780.6,495.23z M869.91,495.23c-2.17-1.55-5.42-2.33-9.74-2.33c-7.04,1.55-13.94,5.18-20.7,10.86&#xA;&#x9;&#x9;l-11.37,76.8l0.41,3.88l0.41,3.49c8.39,2.59,18.13,2.33,29.23-0.78c0.54-1.81,1.01-3.68,1.42-5.62c0.41-1.94,0.74-4.07,1.01-6.4&#xA;&#x9;&#x9;l10.15-69.05L869.91,495.23z"/>
  </g>
  <path d="M500.25,499.98"/>
</svg>